<?xml version="1.0" encoding="UTF-8" standalone="no"?>
<!DOCTYPE svg PUBLIC "-//W3C//DTD SVG 1.1//EN"
 "http://www.w3.org/Graphics/SVG/1.1/DTD/svg11.dtd">
<!-- Generated by graphviz version 2.38.0 (20140413.2041)
 -->
<!-- Title: %3 Pages: 1 -->
<svg width="749pt" height="318pt"
 viewBox="0.00 0.00 748.62 318.00" xmlns="http://www.w3.org/2000/svg" xmlns:xlink="http://www.w3.org/1999/xlink">
<g id="graph0" class="graph" transform="scale(1 1) rotate(0) translate(4 314)">
<title>%3</title>
<polygon fill="#333333" stroke="none" points="-4,4 -4,-314 744.624,-314 744.624,4 -4,4"/>
<text text-anchor="middle" x="370.312" y="-9.2" font-family="Times New Roman,serif" font-size="16.00" fill="white">Network Map</text>
<g id="node1" class="node"><title></title>
<polygon fill="#006699" stroke="#006699" points="443.624,-62 389.624,-62 389.624,-26 443.624,-26 443.624,-62"/>
</g>
<!-- R3 -->
<g id="node2" class="node"><title>R3</title>
<polygon fill="#006699" stroke="#006699" points="240.124,-186 163.124,-186 163.124,-113 240.124,-113 240.124,-186"/>
<text text-anchor="middle" x="201.624" y="-145.8" font-family="Helvetica,sans-Serif" font-size="14.00" fill="white">R3</text>
</g>
<!-- &#45;&#45;R3 -->
<g id="edge3" class="edge"><title>&#45;&#45;R3</title>
<path fill="none" stroke="green" stroke-dasharray="5,2" d="M389.467,-52.2881C368.089,-58.4616 337.803,-68.1839 312.624,-80 287.511,-91.7847 261.016,-107.976 240.211,-121.658"/>
<text text-anchor="middle" x="362.624" y="-83.8" font-family="Courier,monospace" font-size="14.00" fill="white"> &#160;&#160;&#160;&#160;&#160;&#160;&#160;&#160;&#160;&#160;&#160;</text>
<text text-anchor="middle" x="265.211" y="-110.458" font-family="Courier,monospace" font-size="14.00" fill="white">Eth0/0</text>
<text text-anchor="middle" x="364.467" y="-41.0881" font-family="Courier,monospace" font-size="14.00" fill="white">Eth0/3</text>
</g>
<!-- R1 -->
<g id="node3" class="node"><title>R1</title>
<polygon fill="#006699" stroke="#006699" points="455.124,-186 378.124,-186 378.124,-113 455.124,-113 455.124,-186"/>
<text text-anchor="middle" x="416.624" y="-145.8" font-family="Helvetica,sans-Serif" font-size="14.00" fill="white">R1</text>
</g>
<!-- &#45;&#45;R1 -->
<g id="edge1" class="edge"><title>&#45;&#45;R1</title>
<path fill="none" stroke="green" stroke-dasharray="5,2" d="M416.624,-62.0909C416.624,-75.8707 416.624,-95.7183 416.624,-112.917"/>
<text text-anchor="middle" x="466.624" y="-83.8" font-family="Courier,monospace" font-size="14.00" fill="white"> &#160;&#160;&#160;&#160;&#160;&#160;&#160;&#160;&#160;&#160;&#160;</text>
<text text-anchor="middle" x="391.624" y="-101.717" font-family="Courier,monospace" font-size="14.00" fill="white">Eth0/0</text>
<text text-anchor="middle" x="391.624" y="-65.8909" font-family="Courier,monospace" font-size="14.00" fill="white">Eth0/1</text>
</g>
<!-- R2 -->
<g id="node6" class="node"><title>R2</title>
<polygon fill="#006699" stroke="#006699" points="578.124,-186 501.124,-186 501.124,-113 578.124,-113 578.124,-186"/>
<text text-anchor="middle" x="539.624" y="-145.8" font-family="Helvetica,sans-Serif" font-size="14.00" fill="white">R2</text>
</g>
<!-- &#45;&#45;R2 -->
<g id="edge2" class="edge"><title>&#45;&#45;R2</title>
<path fill="none" stroke="green" stroke-dasharray="5,2" d="M443.774,-47.7204C466.417,-51.3843 498.037,-59.9605 517.624,-80 526.267,-88.8431 531.516,-101.091 534.702,-112.788"/>
<text text-anchor="middle" x="576.624" y="-83.8" font-family="Courier,monospace" font-size="14.00" fill="white"> &#160;&#160;&#160;&#160;&#160;&#160;&#160;&#160;&#160;&#160;&#160;</text>
<text text-anchor="middle" x="509.702" y="-101.588" font-family="Courier,monospace" font-size="14.00" fill="white">Eth0/0</text>
<text text-anchor="middle" x="468.774" y="-36.5204" font-family="Courier,monospace" font-size="14.00" fill="white">Eth0/2</text>
</g>
<!-- R5 -->
<g id="node5" class="node"><title>R5</title>
<polygon fill="#006699" stroke="#006699" points="86.1238,-310 9.1238,-310 9.1238,-237 86.1238,-237 86.1238,-310"/>
<text text-anchor="middle" x="47.6238" y="-269.8" font-family="Helvetica,sans-Serif" font-size="14.00" fill="white">R5</text>
</g>
<!-- R3&#45;&#45;R5 -->
<g id="edge9" class="edge"><title>R3&#45;&#45;R5</title>
<path fill="none" stroke="green" stroke-dasharray="5,2" d="M162.991,-155.747C132.026,-161.985 89.7356,-175.419 64.6238,-204 56.6979,-213.021 52.349,-225.173 50,-236.738"/>
<text text-anchor="middle" x="114.624" y="-207.8" font-family="Courier,monospace" font-size="14.00" fill="white"> &#160;&#160;&#160;&#160;&#160;&#160;&#160;&#160;&#160;&#160;&#160;</text>
<text text-anchor="middle" x="25" y="-225.538" font-family="Courier,monospace" font-size="14.00" fill="white">Eth0/0</text>
<text text-anchor="middle" x="137.991" y="-144.547" font-family="Courier,monospace" font-size="14.00" fill="white">Eth0/2</text>
</g>
<!-- SW1 -->
<g id="node7" class="node"><title>SW1</title>
<polygon fill="#006699" stroke="#006699" points="462.124,-310 371.124,-310 371.124,-237 462.124,-237 462.124,-310"/>
<text text-anchor="middle" x="416.624" y="-269.8" font-family="Helvetica,sans-Serif" font-size="14.00" fill="white">SW1</text>
</g>
<!-- R3&#45;&#45;SW1 -->
<g id="edge7" class="edge"><title>R3&#45;&#45;SW1</title>
<path fill="none" stroke="green" stroke-dasharray="5,2" d="M240.222,-175.343C261.366,-188.691 288.173,-205.194 312.624,-219 331.454,-229.632 352.616,-240.677 370.911,-249.952"/>
<text text-anchor="middle" x="362.624" y="-207.8" font-family="Courier,monospace" font-size="14.00" fill="white"> &#160;&#160;&#160;&#160;&#160;&#160;&#160;&#160;&#160;&#160;&#160;</text>
<text text-anchor="middle" x="345.911" y="-238.752" font-family="Courier,monospace" font-size="14.00" fill="white">Eth0/3</text>
<text text-anchor="middle" x="265.222" y="-164.143" font-family="Courier,monospace" font-size="14.00" fill="white">Eth0/0</text>
</g>
<!-- R4 -->
<g id="node8" class="node"><title>R4</title>
<polygon fill="#006699" stroke="#006699" points="209.124,-310 132.124,-310 132.124,-237 209.124,-237 209.124,-310"/>
<text text-anchor="middle" x="170.624" y="-269.8" font-family="Helvetica,sans-Serif" font-size="14.00" fill="white">R4</text>
</g>
<!-- R3&#45;&#45;R4 -->
<g id="edge8" class="edge"><title>R3&#45;&#45;R4</title>
<path fill="none" stroke="green" stroke-dasharray="5,2" d="M178.57,-186.006C175.73,-191.821 173.256,-197.933 171.624,-204 168.812,-214.452 167.873,-226.128 167.83,-236.838"/>
<text text-anchor="middle" x="221.624" y="-207.8" font-family="Courier,monospace" font-size="14.00" fill="white"> &#160;&#160;&#160;&#160;&#160;&#160;&#160;&#160;&#160;&#160;&#160;</text>
<text text-anchor="middle" x="142.83" y="-225.638" font-family="Courier,monospace" font-size="14.00" fill="white">Eth0/0</text>
<text text-anchor="middle" x="153.57" y="-189.806" font-family="Courier,monospace" font-size="14.00" fill="white">Eth0/1</text>
</g>
<!-- R1&#45;&#45;SW1 -->
<g id="edge4" class="edge"><title>R1&#45;&#45;SW1</title>
<path fill="none" stroke="green" stroke-dasharray="5,2" d="M416.624,-186.115C416.624,-202.01 416.624,-220.704 416.624,-236.629"/>
<text text-anchor="middle" x="466.624" y="-207.8" font-family="Courier,monospace" font-size="14.00" fill="white"> &#160;&#160;&#160;&#160;&#160;&#160;&#160;&#160;&#160;&#160;&#160;</text>
<text text-anchor="middle" x="441.624" y="-225.429" font-family="Courier,monospace" font-size="14.00" fill="white">Eth0/1</text>
<text text-anchor="middle" x="391.624" y="-189.915" font-family="Courier,monospace" font-size="14.00" fill="white">Eth0/0</text>
</g>
<!-- SW2 -->
<g id="node4" class="node"><title>SW2</title>
<polygon fill="#006699" stroke="#006699" points="708.124,-310 617.124,-310 617.124,-237 708.124,-237 708.124,-310"/>
<text text-anchor="middle" x="662.624" y="-269.8" font-family="Helvetica,sans-Serif" font-size="14.00" fill="white">SW2</text>
</g>
<!-- R2&#45;&#45;SW2 -->
<g id="edge6" class="edge"><title>R2&#45;&#45;SW2</title>
<path fill="none" stroke="green" stroke-dasharray="5,2" d="M578.213,-166.662C595.947,-175.601 616.195,-188.139 630.624,-204 639.192,-213.418 645.861,-225.534 650.84,-236.95"/>
<text text-anchor="middle" x="690.624" y="-207.8" font-family="Courier,monospace" font-size="14.00" fill="white"> &#160;&#160;&#160;&#160;&#160;&#160;&#160;&#160;&#160;&#160;&#160;</text>
<text text-anchor="middle" x="621.84" y="-225.75" font-family="Courier,monospace" font-size="14.00" fill="white">Eth0/11</text>
<text text-anchor="middle" x="603.213" y="-155.462" font-family="Courier,monospace" font-size="14.00" fill="white">Eth0/1</text>
</g>
<!-- R2&#45;&#45;SW1 -->
<g id="edge5" class="edge"><title>R2&#45;&#45;SW1</title>
<path fill="none" stroke="green" stroke-dasharray="5,2" d="M533.709,-186.2C530.446,-197.627 525.403,-209.712 517.624,-219 503.163,-236.266 481.672,-248.738 462.226,-257.273"/>
<text text-anchor="middle" x="576.624" y="-207.8" font-family="Courier,monospace" font-size="14.00" fill="white"> &#160;&#160;&#160;&#160;&#160;&#160;&#160;&#160;&#160;&#160;&#160;</text>
<text text-anchor="middle" x="487.226" y="-246.073" font-family="Courier,monospace" font-size="14.00" fill="white">Eth0/2</text>
<text text-anchor="middle" x="508.709" y="-190" font-family="Courier,monospace" font-size="14.00" fill="white">Eth0/0</text>
</g>
</g>
</svg>
