<?xml version="1.0" encoding="UTF-8" standalone="no"?>
<!DOCTYPE svg PUBLIC "-//W3C//DTD SVG 1.1//EN"
 "http://www.w3.org/Graphics/SVG/1.1/DTD/svg11.dtd">
<!-- Generated by graphviz version 2.38.0 (20140413.2041)
 -->
<!-- Title: %3 Pages: 1 -->
<svg width="749pt" height="318pt"
 viewBox="0.00 0.00 748.97 318.00" xmlns="http://www.w3.org/2000/svg" xmlns:xlink="http://www.w3.org/1999/xlink">
<g id="graph0" class="graph" transform="scale(1 1) rotate(0) translate(4 314)">
<title>%3</title>
<polygon fill="#333333" stroke="none" points="-4,4 -4,-314 744.97,-314 744.97,4 -4,4"/>
<text text-anchor="middle" x="370.485" y="-9.2" font-family="Times New Roman,serif" font-size="16.00" fill="white">Network Map</text>
<g id="node1" class="node"><title></title>
<polygon fill="#006699" stroke="#006699" points="320.97,-62 266.97,-62 266.97,-26 320.97,-26 320.97,-62"/>
</g>
<!-- R2 -->
<g id="node3" class="node"><title>R2</title>
<polygon fill="#006699" stroke="#006699" points="209.47,-186 132.47,-186 132.47,-113 209.47,-113 209.47,-186"/>
<text text-anchor="middle" x="170.97" y="-145.8" font-family="Helvetica,sans-Serif" font-size="14.00" fill="white">R2</text>
</g>
<!-- &#45;&#45;R2 -->
<g id="edge2" class="edge"><title>&#45;&#45;R2</title>
<path fill="none" stroke="green" stroke-dasharray="5,2" d="M266.745,-47.1621C243.248,-50.4712 210.015,-58.8401 189.97,-80 181.567,-88.8697 176.822,-101.124 174.162,-112.818"/>
<text text-anchor="middle" x="239.97" y="-83.8" font-family="Courier,monospace" font-size="14.00" fill="white"> &#160;&#160;&#160;&#160;&#160;&#160;&#160;&#160;&#160;&#160;&#160;</text>
<text text-anchor="middle" x="149.162" y="-101.618" font-family="Courier,monospace" font-size="14.00" fill="white">Eth0/0</text>
<text text-anchor="middle" x="241.745" y="-35.9621" font-family="Courier,monospace" font-size="14.00" fill="white">Eth0/2</text>
</g>
<!-- R3 -->
<g id="node5" class="node"><title>R3</title>
<polygon fill="#006699" stroke="#006699" points="547.47,-186 470.47,-186 470.47,-113 547.47,-113 547.47,-186"/>
<text text-anchor="middle" x="508.97" y="-145.8" font-family="Helvetica,sans-Serif" font-size="14.00" fill="white">R3</text>
</g>
<!-- &#45;&#45;R3 -->
<g id="edge3" class="edge"><title>&#45;&#45;R3</title>
<path fill="none" stroke="green" stroke-dasharray="5,2" d="M321.127,-52.2881C342.505,-58.4616 372.79,-68.1839 397.97,-80 423.082,-91.7847 449.578,-107.976 470.382,-121.658"/>
<text text-anchor="middle" x="475.97" y="-83.8" font-family="Courier,monospace" font-size="14.00" fill="white"> &#160;&#160;&#160;&#160;&#160;&#160;&#160;&#160;&#160;&#160;&#160;</text>
<text text-anchor="middle" x="445.382" y="-110.458" font-family="Courier,monospace" font-size="14.00" fill="white">Eth0/0</text>
<text text-anchor="middle" x="346.127" y="-41.0881" font-family="Courier,monospace" font-size="14.00" fill="white">Eth0/3</text>
</g>
<!-- R1 -->
<g id="node7" class="node"><title>R1</title>
<polygon fill="#006699" stroke="#006699" points="332.47,-186 255.47,-186 255.47,-113 332.47,-113 332.47,-186"/>
<text text-anchor="middle" x="293.97" y="-145.8" font-family="Helvetica,sans-Serif" font-size="14.00" fill="white">R1</text>
</g>
<!-- &#45;&#45;R1 -->
<g id="edge1" class="edge"><title>&#45;&#45;R1</title>
<path fill="none" stroke="green" stroke-dasharray="5,2" d="M293.97,-62.0909C293.97,-75.8707 293.97,-95.7183 293.97,-112.917"/>
<text text-anchor="middle" x="343.97" y="-83.8" font-family="Courier,monospace" font-size="14.00" fill="white"> &#160;&#160;&#160;&#160;&#160;&#160;&#160;&#160;&#160;&#160;&#160;</text>
<text text-anchor="middle" x="268.97" y="-101.717" font-family="Courier,monospace" font-size="14.00" fill="white">Eth0/0</text>
<text text-anchor="middle" x="268.97" y="-65.8909" font-family="Courier,monospace" font-size="14.00" fill="white">Eth0/1</text>
</g>
<!-- R4 -->
<g id="node2" class="node"><title>R4</title>
<polygon fill="#006699" stroke="#006699" points="578.47,-310 501.47,-310 501.47,-237 578.47,-237 578.47,-310"/>
<text text-anchor="middle" x="539.97" y="-269.8" font-family="Helvetica,sans-Serif" font-size="14.00" fill="white">R4</text>
</g>
<!-- SW1 -->
<g id="node4" class="node"><title>SW1</title>
<polygon fill="#006699" stroke="#006699" points="339.47,-310 248.47,-310 248.47,-237 339.47,-237 339.47,-310"/>
<text text-anchor="middle" x="293.97" y="-269.8" font-family="Helvetica,sans-Serif" font-size="14.00" fill="white">SW1</text>
</g>
<!-- R2&#45;&#45;SW1 -->
<g id="edge5" class="edge"><title>R2&#45;&#45;SW1</title>
<path fill="none" stroke="green" stroke-dasharray="5,2" d="M175.109,-186.204C177.855,-197.632 182.413,-209.715 189.97,-219 204.901,-237.347 227.78,-250.075 248.282,-258.498"/>
<text text-anchor="middle" x="239.97" y="-207.8" font-family="Courier,monospace" font-size="14.00" fill="white"> &#160;&#160;&#160;&#160;&#160;&#160;&#160;&#160;&#160;&#160;&#160;</text>
<text text-anchor="middle" x="223.282" y="-247.298" font-family="Courier,monospace" font-size="14.00" fill="white">Eth0/2</text>
<text text-anchor="middle" x="150.109" y="-190.004" font-family="Courier,monospace" font-size="14.00" fill="white">Eth0/0</text>
</g>
<!-- SW2 -->
<g id="node8" class="node"><title>SW2</title>
<polygon fill="#006699" stroke="#006699" points="93.4697,-310 2.46968,-310 2.46968,-237 93.4697,-237 93.4697,-310"/>
<text text-anchor="middle" x="47.9697" y="-269.8" font-family="Helvetica,sans-Serif" font-size="14.00" fill="white">SW2</text>
</g>
<!-- R2&#45;&#45;SW2 -->
<g id="edge6" class="edge"><title>R2&#45;&#45;SW2</title>
<path fill="none" stroke="green" stroke-dasharray="5,2" d="M132.248,-165.499C113.535,-174.355 91.9446,-187.163 76.9697,-204 68.6447,-213.36 62.465,-225.462 58,-236.883"/>
<text text-anchor="middle" x="126.97" y="-207.8" font-family="Courier,monospace" font-size="14.00" fill="white"> &#160;&#160;&#160;&#160;&#160;&#160;&#160;&#160;&#160;&#160;&#160;</text>
<text text-anchor="middle" x="29" y="-225.683" font-family="Courier,monospace" font-size="14.00" fill="white">Eth0/11</text>
<text text-anchor="middle" x="107.248" y="-154.299" font-family="Courier,monospace" font-size="14.00" fill="white">Eth0/1</text>
</g>
<!-- R3&#45;&#45;R4 -->
<g id="edge8" class="edge"><title>R3&#45;&#45;R4</title>
<path fill="none" stroke="green" stroke-dasharray="5,2" d="M518.019,-186.115C522.058,-202.01 526.808,-220.704 530.855,-236.629"/>
<text text-anchor="middle" x="575.97" y="-207.8" font-family="Courier,monospace" font-size="14.00" fill="white"> &#160;&#160;&#160;&#160;&#160;&#160;&#160;&#160;&#160;&#160;&#160;</text>
<text text-anchor="middle" x="505.855" y="-225.429" font-family="Courier,monospace" font-size="14.00" fill="white">Eth0/0</text>
<text text-anchor="middle" x="493.019" y="-189.915" font-family="Courier,monospace" font-size="14.00" fill="white">Eth0/1</text>
</g>
<!-- R3&#45;&#45;SW1 -->
<g id="edge7" class="edge"><title>R3&#45;&#45;SW1</title>
<path fill="none" stroke="green" stroke-dasharray="5,2" d="M470.21,-172.755C453.969,-182.218 434.951,-193.479 417.97,-204 407.595,-210.428 405.484,-212.804 394.97,-219 377.191,-229.477 357.188,-240.271 339.703,-249.396"/>
<text text-anchor="middle" x="467.97" y="-207.8" font-family="Courier,monospace" font-size="14.00" fill="white"> &#160;&#160;&#160;&#160;&#160;&#160;&#160;&#160;&#160;&#160;&#160;</text>
<text text-anchor="middle" x="364.703" y="-238.196" font-family="Courier,monospace" font-size="14.00" fill="white">Eth0/3</text>
<text text-anchor="middle" x="445.21" y="-161.555" font-family="Courier,monospace" font-size="14.00" fill="white">Eth0/0</text>
</g>
<!-- R5 -->
<g id="node6" class="node"><title>R5</title>
<polygon fill="#006699" stroke="#006699" points="701.47,-310 624.47,-310 624.47,-237 701.47,-237 701.47,-310"/>
<text text-anchor="middle" x="662.97" y="-269.8" font-family="Helvetica,sans-Serif" font-size="14.00" fill="white">R5</text>
</g>
<!-- R3&#45;&#45;R5 -->
<g id="edge9" class="edge"><title>R3&#45;&#45;R5</title>
<path fill="none" stroke="green" stroke-dasharray="5,2" d="M547.596,-159.983C573.57,-168.031 607.111,-181.876 629.97,-204 639.265,-212.997 646.28,-225.144 651.398,-236.711"/>
<text text-anchor="middle" x="690.97" y="-207.8" font-family="Courier,monospace" font-size="14.00" fill="white"> &#160;&#160;&#160;&#160;&#160;&#160;&#160;&#160;&#160;&#160;&#160;</text>
<text text-anchor="middle" x="626.398" y="-225.511" font-family="Courier,monospace" font-size="14.00" fill="white">Eth0/0</text>
<text text-anchor="middle" x="572.596" y="-148.783" font-family="Courier,monospace" font-size="14.00" fill="white">Eth0/2</text>
</g>
<!-- R1&#45;&#45;SW1 -->
<g id="edge4" class="edge"><title>R1&#45;&#45;SW1</title>
<path fill="none" stroke="green" stroke-dasharray="5,2" d="M293.97,-186.115C293.97,-202.01 293.97,-220.704 293.97,-236.629"/>
<text text-anchor="middle" x="343.97" y="-207.8" font-family="Courier,monospace" font-size="14.00" fill="white"> &#160;&#160;&#160;&#160;&#160;&#160;&#160;&#160;&#160;&#160;&#160;</text>
<text text-anchor="middle" x="268.97" y="-225.429" font-family="Courier,monospace" font-size="14.00" fill="white">Eth0/1</text>
<text text-anchor="middle" x="268.97" y="-189.915" font-family="Courier,monospace" font-size="14.00" fill="white">Eth0/0</text>
</g>
</g>
</svg>
