<?xml version="1.0" encoding="UTF-8" standalone="no"?>
<!DOCTYPE svg PUBLIC "-//W3C//DTD SVG 1.1//EN"
 "http://www.w3.org/Graphics/SVG/1.1/DTD/svg11.dtd">
<!-- Generated by graphviz version 2.38.0 (20140413.2041)
 -->
<!-- Title: %3 Pages: 1 -->
<svg width="623pt" height="355pt"
 viewBox="0.00 0.00 622.86 355.00" xmlns="http://www.w3.org/2000/svg" xmlns:xlink="http://www.w3.org/1999/xlink">
<g id="graph0" class="graph" transform="scale(1 1) rotate(0) translate(4 351)">
<title>%3</title>
<polygon fill="#333333" stroke="none" points="-4,4 -4,-351 618.861,-351 618.861,4 -4,4"/>
<text text-anchor="middle" x="307.431" y="-9.2" font-family="Times New Roman,serif" font-size="16.00" fill="white">Network Map</text>
<!-- R3 -->
<g id="node1" class="node"><title>R3</title>
<polygon fill="#006699" stroke="#006699" points="207.361,-223 130.361,-223 130.361,-150 207.361,-150 207.361,-223"/>
<text text-anchor="middle" x="168.861" y="-182.8" font-family="Helvetica,sans-Serif" font-size="14.00" fill="white">R3</text>
</g>
<!-- R4 -->
<g id="node4" class="node"><title>R4</title>
<polygon fill="#006699" stroke="#006699" points="84.3611,-347 7.36111,-347 7.36111,-274 84.3611,-274 84.3611,-347"/>
<text text-anchor="middle" x="45.8611" y="-306.8" font-family="Helvetica,sans-Serif" font-size="14.00" fill="white">R4</text>
</g>
<!-- R3&#45;&#45;R4 -->
<g id="edge6" class="edge"><title>R3&#45;&#45;R4</title>
<path fill="none" stroke="green" stroke-dasharray="5,2" d="M130.188,-198.745C108.081,-207.051 81.5227,-220.527 64.8611,-241 57.3047,-250.285 52.7468,-262.368 50,-273.796"/>
<text text-anchor="middle" x="114.861" y="-244.8" font-family="Courier,monospace" font-size="14.00" fill="white"> &#160;&#160;&#160;&#160;&#160;&#160;&#160;&#160;&#160;&#160;&#160;</text>
<text text-anchor="middle" x="25" y="-262.596" font-family="Courier,monospace" font-size="14.00" fill="white">Eth0/0</text>
<text text-anchor="middle" x="105.188" y="-187.545" font-family="Courier,monospace" font-size="14.00" fill="white">Eth0/1</text>
</g>
<!-- R5 -->
<g id="node7" class="node"><title>R5</title>
<polygon fill="#006699" stroke="#006699" points="207.361,-347 130.361,-347 130.361,-274 207.361,-274 207.361,-347"/>
<text text-anchor="middle" x="168.861" y="-306.8" font-family="Helvetica,sans-Serif" font-size="14.00" fill="white">R5</text>
</g>
<!-- R3&#45;&#45;R5 -->
<g id="edge7" class="edge"><title>R3&#45;&#45;R5</title>
<path fill="none" stroke="green" stroke-dasharray="5,2" d="M168.861,-223.115C168.861,-239.01 168.861,-257.704 168.861,-273.629"/>
<text text-anchor="middle" x="218.861" y="-244.8" font-family="Courier,monospace" font-size="14.00" fill="white"> &#160;&#160;&#160;&#160;&#160;&#160;&#160;&#160;&#160;&#160;&#160;</text>
<text text-anchor="middle" x="143.861" y="-262.429" font-family="Courier,monospace" font-size="14.00" fill="white">Eth0/0</text>
<text text-anchor="middle" x="143.861" y="-226.915" font-family="Courier,monospace" font-size="14.00" fill="white">Eth0/2</text>
</g>
<!-- SW2 -->
<g id="node2" class="node"><title>SW2</title>
<polygon fill="#006699" stroke="#006699" points="337.361,-347 246.361,-347 246.361,-274 337.361,-274 337.361,-347"/>
<text text-anchor="middle" x="291.861" y="-306.8" font-family="Helvetica,sans-Serif" font-size="14.00" fill="white">SW2</text>
</g>
<!-- SW1 -->
<g id="node3" class="node"><title>SW1</title>
<polygon fill="#006699" stroke="#006699" points="398.361,-99 307.361,-99 307.361,-26 398.361,-26 398.361,-99"/>
<text text-anchor="middle" x="352.861" y="-58.8" font-family="Helvetica,sans-Serif" font-size="14.00" fill="white">SW1</text>
</g>
<!-- SW1&#45;&#45;R3 -->
<g id="edge3" class="edge"><title>SW1&#45;&#45;R3</title>
<path fill="none" stroke="green" stroke-dasharray="5,2" d="M307.084,-65.7528C268.712,-70.1507 215.296,-82.5658 183.861,-117 175.735,-125.901 171.651,-138.162 169.698,-149.853"/>
<text text-anchor="middle" x="233.861" y="-120.8" font-family="Courier,monospace" font-size="14.00" fill="white"> &#160;&#160;&#160;&#160;&#160;&#160;&#160;&#160;&#160;&#160;&#160;</text>
<text text-anchor="middle" x="144.698" y="-138.653" font-family="Courier,monospace" font-size="14.00" fill="white">Eth0/0</text>
<text text-anchor="middle" x="282.084" y="-54.5528" font-family="Courier,monospace" font-size="14.00" fill="white">Eth0/3</text>
</g>
<!-- R2 -->
<g id="node5" class="node"><title>R2</title>
<polygon fill="#006699" stroke="#006699" points="330.361,-223 253.361,-223 253.361,-150 330.361,-150 330.361,-223"/>
<text text-anchor="middle" x="291.861" y="-182.8" font-family="Helvetica,sans-Serif" font-size="14.00" fill="white">R2</text>
</g>
<!-- SW1&#45;&#45;R2 -->
<g id="edge2" class="edge"><title>SW1&#45;&#45;R2</title>
<path fill="none" stroke="green" stroke-dasharray="5,2" d="M307.324,-96.1674C301.486,-102.399 296.341,-109.384 292.861,-117 288.264,-127.061 286.875,-138.852 286.97,-149.788"/>
<text text-anchor="middle" x="342.861" y="-120.8" font-family="Courier,monospace" font-size="14.00" fill="white"> &#160;&#160;&#160;&#160;&#160;&#160;&#160;&#160;&#160;&#160;&#160;</text>
<text text-anchor="middle" x="261.97" y="-138.588" font-family="Courier,monospace" font-size="14.00" fill="white">Eth0/0</text>
<text text-anchor="middle" x="282.324" y="-84.9674" font-family="Courier,monospace" font-size="14.00" fill="white">Eth0/2</text>
</g>
<!-- R6 -->
<g id="node6" class="node"><title>R6</title>
<polygon fill="#006699" stroke="#006699" points="453.361,-223 376.361,-223 376.361,-150 453.361,-150 453.361,-223"/>
<text text-anchor="middle" x="414.861" y="-182.8" font-family="Helvetica,sans-Serif" font-size="14.00" fill="white">R6</text>
</g>
<!-- SW1&#45;&#45;R6 -->
<g id="edge4" class="edge"><title>SW1&#45;&#45;R6</title>
<path fill="none" stroke="green" stroke-dasharray="5,2" d="M382.096,-99.2785C386.037,-105.007 389.777,-111.023 392.861,-117 398.131,-127.212 402.454,-138.931 405.831,-149.755"/>
<text text-anchor="middle" x="448.861" y="-120.8" font-family="Courier,monospace" font-size="14.00" fill="white"> &#160;&#160;&#160;&#160;&#160;&#160;&#160;&#160;&#160;&#160;&#160;</text>
<text text-anchor="middle" x="380.831" y="-138.555" font-family="Courier,monospace" font-size="14.00" fill="white">Eth0/1</text>
<text text-anchor="middle" x="357.096" y="-103.079" font-family="Courier,monospace" font-size="14.00" fill="white">Eth0/5</text>
</g>
<!-- R1 -->
<g id="node8" class="node"><title>R1</title>
<polygon fill="#006699" stroke="#006699" points="576.361,-223 499.361,-223 499.361,-150 576.361,-150 576.361,-223"/>
<text text-anchor="middle" x="537.861" y="-182.8" font-family="Helvetica,sans-Serif" font-size="14.00" fill="white">R1</text>
</g>
<!-- SW1&#45;&#45;R1 -->
<g id="edge1" class="edge"><title>SW1&#45;&#45;R1</title>
<path fill="none" stroke="green" stroke-dasharray="5,2" d="M398.396,-70.543C430.735,-77.5653 473.462,-91.188 502.861,-117 512.796,-125.723 520.282,-137.944 525.726,-149.652"/>
<text text-anchor="middle" x="564.861" y="-120.8" font-family="Courier,monospace" font-size="14.00" fill="white"> &#160;&#160;&#160;&#160;&#160;&#160;&#160;&#160;&#160;&#160;&#160;</text>
<text text-anchor="middle" x="500.726" y="-138.452" font-family="Courier,monospace" font-size="14.00" fill="white">Eth0/0</text>
<text text-anchor="middle" x="423.396" y="-59.343" font-family="Courier,monospace" font-size="14.00" fill="white">Eth0/1</text>
</g>
<!-- R2&#45;&#45;SW2 -->
<g id="edge5" class="edge"><title>R2&#45;&#45;SW2</title>
<path fill="none" stroke="green" stroke-dasharray="5,2" d="M291.861,-223.115C291.861,-239.01 291.861,-257.704 291.861,-273.629"/>
<text text-anchor="middle" x="341.861" y="-244.8" font-family="Courier,monospace" font-size="14.00" fill="white"> &#160;&#160;&#160;&#160;&#160;&#160;&#160;&#160;&#160;&#160;&#160;</text>
<text text-anchor="middle" x="262.861" y="-262.429" font-family="Courier,monospace" font-size="14.00" fill="white">Eth0/11</text>
<text text-anchor="middle" x="266.861" y="-226.915" font-family="Courier,monospace" font-size="14.00" fill="white">Eth0/1</text>
</g>
</g>
</svg>
